<mxfile host="app.diagrams.net" agent="Mozilla/5.0 (Windows NT 10.0; Win64; x64) AppleWebKit/537.36 (KHTML, like Gecko) Chrome/132.0.0.0 Safari/537.36 OPR/117.0.0.0" version="26.2.12">
  <diagram name="PÃ¡gina-1" id="ppss2yLxjpdBKduTU_iC">
    <mxGraphModel dx="2288" dy="638" grid="1" gridSize="10" guides="1" tooltips="1" connect="1" arrows="1" fold="1" page="1" pageScale="1" pageWidth="827" pageHeight="1169" math="0" shadow="0">
      <root>
        <mxCell id="0" />
        <mxCell id="1" parent="0" />
        <mxCell id="XI8qcbLXFoN1dal2LAkV-12" style="edgeStyle=orthogonalEdgeStyle;rounded=0;orthogonalLoop=1;jettySize=auto;html=1;exitX=0;exitY=0.5;exitDx=0;exitDy=0;" edge="1" parent="1" source="XI8qcbLXFoN1dal2LAkV-14" target="XI8qcbLXFoN1dal2LAkV-17">
          <mxGeometry relative="1" as="geometry" />
        </mxCell>
        <mxCell id="XI8qcbLXFoN1dal2LAkV-13" style="edgeStyle=orthogonalEdgeStyle;rounded=0;orthogonalLoop=1;jettySize=auto;html=1;" edge="1" parent="1" source="XI8qcbLXFoN1dal2LAkV-14" target="XI8qcbLXFoN1dal2LAkV-20">
          <mxGeometry relative="1" as="geometry" />
        </mxCell>
        <mxCell id="XI8qcbLXFoN1dal2LAkV-14" value="8" style="ellipse;whiteSpace=wrap;html=1;aspect=fixed;" vertex="1" parent="1">
          <mxGeometry x="350" y="50" width="80" height="80" as="geometry" />
        </mxCell>
        <mxCell id="XI8qcbLXFoN1dal2LAkV-15" style="edgeStyle=orthogonalEdgeStyle;rounded=0;orthogonalLoop=1;jettySize=auto;html=1;" edge="1" parent="1" source="XI8qcbLXFoN1dal2LAkV-17" target="XI8qcbLXFoN1dal2LAkV-23">
          <mxGeometry relative="1" as="geometry" />
        </mxCell>
        <mxCell id="XI8qcbLXFoN1dal2LAkV-16" style="edgeStyle=orthogonalEdgeStyle;rounded=0;orthogonalLoop=1;jettySize=auto;html=1;entryX=0.5;entryY=0;entryDx=0;entryDy=0;" edge="1" parent="1" source="XI8qcbLXFoN1dal2LAkV-17" target="XI8qcbLXFoN1dal2LAkV-26">
          <mxGeometry relative="1" as="geometry" />
        </mxCell>
        <mxCell id="XI8qcbLXFoN1dal2LAkV-17" value="30" style="ellipse;whiteSpace=wrap;html=1;aspect=fixed;" vertex="1" parent="1">
          <mxGeometry x="70" y="180" width="80" height="80" as="geometry" />
        </mxCell>
        <mxCell id="XI8qcbLXFoN1dal2LAkV-18" style="edgeStyle=orthogonalEdgeStyle;rounded=0;orthogonalLoop=1;jettySize=auto;html=1;" edge="1" parent="1" source="XI8qcbLXFoN1dal2LAkV-20" target="XI8qcbLXFoN1dal2LAkV-29">
          <mxGeometry relative="1" as="geometry" />
        </mxCell>
        <mxCell id="XI8qcbLXFoN1dal2LAkV-19" style="edgeStyle=orthogonalEdgeStyle;rounded=0;orthogonalLoop=1;jettySize=auto;html=1;" edge="1" parent="1" source="XI8qcbLXFoN1dal2LAkV-20" target="XI8qcbLXFoN1dal2LAkV-30">
          <mxGeometry relative="1" as="geometry" />
        </mxCell>
        <mxCell id="XI8qcbLXFoN1dal2LAkV-20" value="15" style="ellipse;whiteSpace=wrap;html=1;aspect=fixed;" vertex="1" parent="1">
          <mxGeometry x="640" y="180" width="80" height="80" as="geometry" />
        </mxCell>
        <mxCell id="XI8qcbLXFoN1dal2LAkV-21" style="edgeStyle=orthogonalEdgeStyle;rounded=0;orthogonalLoop=1;jettySize=auto;html=1;entryX=1;entryY=0.5;entryDx=0;entryDy=0;" edge="1" parent="1" source="XI8qcbLXFoN1dal2LAkV-23" target="XI8qcbLXFoN1dal2LAkV-31">
          <mxGeometry relative="1" as="geometry" />
        </mxCell>
        <mxCell id="XI8qcbLXFoN1dal2LAkV-22" style="edgeStyle=orthogonalEdgeStyle;rounded=0;orthogonalLoop=1;jettySize=auto;html=1;entryX=0;entryY=0.5;entryDx=0;entryDy=0;" edge="1" parent="1" source="XI8qcbLXFoN1dal2LAkV-23" target="XI8qcbLXFoN1dal2LAkV-32">
          <mxGeometry relative="1" as="geometry" />
        </mxCell>
        <mxCell id="XI8qcbLXFoN1dal2LAkV-23" value="21" style="ellipse;whiteSpace=wrap;html=1;aspect=fixed;" vertex="1" parent="1">
          <mxGeometry x="-60" y="280" width="80" height="80" as="geometry" />
        </mxCell>
        <mxCell id="XI8qcbLXFoN1dal2LAkV-24" style="edgeStyle=orthogonalEdgeStyle;rounded=0;orthogonalLoop=1;jettySize=auto;html=1;entryX=1;entryY=0.5;entryDx=0;entryDy=0;" edge="1" parent="1" source="XI8qcbLXFoN1dal2LAkV-26" target="XI8qcbLXFoN1dal2LAkV-33">
          <mxGeometry relative="1" as="geometry" />
        </mxCell>
        <mxCell id="XI8qcbLXFoN1dal2LAkV-25" style="edgeStyle=orthogonalEdgeStyle;rounded=0;orthogonalLoop=1;jettySize=auto;html=1;entryX=0;entryY=0.5;entryDx=0;entryDy=0;" edge="1" parent="1" source="XI8qcbLXFoN1dal2LAkV-26" target="XI8qcbLXFoN1dal2LAkV-34">
          <mxGeometry relative="1" as="geometry" />
        </mxCell>
        <mxCell id="XI8qcbLXFoN1dal2LAkV-26" value="4" style="ellipse;whiteSpace=wrap;html=1;aspect=fixed;" vertex="1" parent="1">
          <mxGeometry x="190" y="280" width="80" height="80" as="geometry" />
        </mxCell>
        <mxCell id="XI8qcbLXFoN1dal2LAkV-29" value="12" style="ellipse;whiteSpace=wrap;html=1;aspect=fixed;" vertex="1" parent="1">
          <mxGeometry x="500" y="280" width="80" height="80" as="geometry" />
        </mxCell>
        <mxCell id="XI8qcbLXFoN1dal2LAkV-30" value="9" style="ellipse;whiteSpace=wrap;html=1;aspect=fixed;" vertex="1" parent="1">
          <mxGeometry x="790" y="280" width="80" height="80" as="geometry" />
        </mxCell>
        <mxCell id="XI8qcbLXFoN1dal2LAkV-31" value="1" style="ellipse;whiteSpace=wrap;html=1;aspect=fixed;" vertex="1" parent="1">
          <mxGeometry x="-140" y="370" width="80" height="80" as="geometry" />
        </mxCell>
        <mxCell id="XI8qcbLXFoN1dal2LAkV-32" value="13" style="ellipse;whiteSpace=wrap;html=1;aspect=fixed;" vertex="1" parent="1">
          <mxGeometry x="10" y="370" width="80" height="80" as="geometry" />
        </mxCell>
        <mxCell id="XI8qcbLXFoN1dal2LAkV-33" value="0" style="ellipse;whiteSpace=wrap;html=1;aspect=fixed;" vertex="1" parent="1">
          <mxGeometry x="120" y="370" width="80" height="80" as="geometry" />
        </mxCell>
        <mxCell id="XI8qcbLXFoN1dal2LAkV-34" value="6" style="ellipse;whiteSpace=wrap;html=1;aspect=fixed;" vertex="1" parent="1">
          <mxGeometry x="270" y="370" width="80" height="80" as="geometry" />
        </mxCell>
      </root>
    </mxGraphModel>
  </diagram>
</mxfile>
